<?xml version="1.0" encoding="UTF-8"?><svg id="Top_Face" xmlns="http://www.w3.org/2000/svg" viewBox="0 0 1920 1080"><defs><style>.cls-1{letter-spacing:0em;}.cls-2{font-family:Montserrat-Bold, Montserrat;font-size:155px;font-weight:700;}.cls-2,.cls-3{fill:#fff;}.cls-4{letter-spacing:0em;}.cls-5{letter-spacing:-.02em;}.cls-6{letter-spacing:-.02em;}.cls-7{letter-spacing:0em;}.cls-3{stroke-width:0px;}</style></defs><path class="cls-3" d="M509.58,514.74c-198.44-.14-417.56,83.5-414.55,152.12,1.62,36.97,67.69,69.4,156.24,91.69,2.24-5.89,6.14-11.76,11.67-17.54,18.06-18.85,53.53-36.86,99.88-50.72,47.06-14.07,98.98-21.81,146.23-21.81h.31c47.21.04,99.11,7.81,146.12,21.9,46.24,13.86,81.62,31.85,99.62,50.67,5.51,5.76,9.39,11.6,11.63,17.47,88.5-22.27,154.61-54.69,156.24-91.67,3-68.53-215.54-151.98-413.39-152.12ZM186.61,657.72c-11.79,0-21.33-7.73-21.33-17.27s9.55-17.28,21.33-17.28c7.48,0,14.06,3.12,17.87,7.83,2.19,2.72,3.47,5.96,3.47,9.45,0,9.54-9.55,17.27-21.33,17.27ZM328.72,616.35c-15.88,0-28.93-9.84-30.36-22.4-.08-.75-.13-1.52-.13-2.28,0-13.62,13.65-24.67,30.49-24.67,11.02,0,20.68,4.74,26.04,11.84,2.81,3.74,4.44,8.13,4.44,12.83,0,13.63-13.65,24.68-30.48,24.68ZM509.8,592.28c-21.05,0-38.1-13.81-38.1-30.85s17.06-30.85,38.1-30.85,38.1,13.81,38.1,30.85-17.06,30.85-38.1,30.85ZM690.58,616.93c-16.83,0-30.48-11.04-30.48-24.67s13.65-24.68,30.48-24.68,30.48,11.05,30.48,24.68-13.65,24.67-30.48,24.67ZM837.47,657.72c-11.79,0-21.33-7.73-21.33-17.27s9.55-17.28,21.33-17.28,21.33,7.74,21.33,17.28-9.55,17.27-21.33,17.27ZM509.35,691.71h-.3c-98.27,0-199.7,34.43-229.34,65.37-2.31,2.41-4.12,4.76-5.38,6.94,73.48,16.38,159.02,25.98,235.25,25.93,75.79-.05,160.89-9.62,234.08-25.95-1.26-2.17-3.05-4.5-5.34-6.89-29.53-30.88-130.83-65.32-228.97-65.4Z"/><path class="cls-3" d="M756.06,452.91c-7.13-14.74-28.2-55.08-69.11-91.16-7.58-6.67-14.15-11.75-18.76-15.16-36.01-26.64-70.85-39.48-94.74-46.09,5.86,5.51,17.48,18.09,21.54,37.43,8.44,40.2-23.95,70.86-26.01,72.75,21.71,6.19,37,24.51,38.2,45.11,1.37,23.33-15.98,38.59-18.11,40.41,28.32,2.68,59.52,7.05,92.95,13.9,37.06,7.6,70.47,16.95,99.86,26.7-3.41-22.87-10.54-52.31-25.82-83.9ZM637.65,372.47c-4.88,13.08-20.8,15.14-23.16,15.45-5.18.67-9.5-.11-12.2-.81,4.43-4.69,9.62-11.79,10.97-21.14,1.53-10.57-2.77-17.54,1.22-21.13,3.73-3.36,11.86-1.17,16.66,2.43,7.52,5.64,9.65,16.77,6.5,25.2Z"/><path class="cls-3" d="M412.15,455.79c1.21-20.6,16.49-38.92,38.2-45.11-2.06-1.89-34.45-32.55-26.01-72.75,4.06-19.34,15.68-31.91,21.54-37.43-23.9,6.61-58.73,19.45-94.74,46.09-4.62,3.41-11.19,8.49-18.76,15.16-40.92,36.08-61.98,76.41-69.11,91.16-15.27,31.59-22.4,61.03-25.82,83.9,29.4-9.75,62.8-19.1,99.87-26.7,33.42-6.86,64.63-11.22,92.95-13.9-2.13-1.82-19.48-17.08-18.12-40.41ZM404.84,387.92c-2.37-.31-18.28-2.37-23.17-15.45-3.16-8.43-1.02-19.56,6.51-25.2,4.8-3.6,12.92-5.79,16.66-2.43,3.99,3.59-.32,10.57,1.21,21.13,1.37,9.35,6.55,16.44,10.97,21.14-2.69.7-7.02,1.48-12.19.81Z"/><path class="cls-3" d="M508.43,290.05c-28.82.38-35.46,2.91-35.77,5.28-.35,2.69,7.51,4.65,15.04,10.16,13.18,9.64,18.41,25.06,20.73,37.39h-.01c2.31-12.33,7.55-27.75,20.73-37.39,7.53-5.51,15.38-7.47,15.04-10.16-.31-2.37-6.94-4.9-35.77-5.28h.01Z"/><path class="cls-3" d="M527.92,412.15c.96.18,22.58,3.73,36.98-13.01,13.91-16.16,8.11-36.15,7.72-37.39-2.48-1-11.43-4.28-21.95-.81-3.05,1.01-9.63,3.7-14.63,10.16-4.41,5.7-5.31,11.36-6.91,22.35-1.1,7.56-1.29,14-1.22,18.7Z"/><path class="cls-3" d="M490.42,412.15c-.96.18-22.58,3.73-36.98-13.01-13.91-16.16-8.11-36.15-7.72-37.39,2.48-1,11.43-4.28,21.95-.81,3.05,1.01,9.63,3.7,14.63,10.16,4.41,5.7,5.31,11.36,6.91,22.35,1.1,7.56,1.29,14,1.22,18.7Z"/><path class="cls-3" d="M518.58,451.98c2.98-.75,7.56-2.35,11.79-6.1,5.88-5.21,10.16-13.77,8.13-15.85-1.99-2.03-10.63,1.52-15.44,7.72-4.18,5.38-4.51,11.5-4.47,14.22Z"/><path class="cls-3" d="M498.36,451.98c-2.98-.75-7.56-2.35-11.79-6.1-5.88-5.21-10.16-13.77-8.13-15.85,1.99-2.03,10.63,1.52,15.44,7.72,4.18,5.38,4.51,11.5,4.47,14.22Z"/><text class="cls-2" transform="translate(976.94 482.98)"><tspan x="0" y="0">Abdu</tspan><tspan class="cls-7" x="439.42" y="0">c</tspan><tspan class="cls-5" x="532.26" y="0">t</tspan><tspan x="597.05" y="0">ed </tspan><tspan x="38.36" y="186">Mon</tspan><tspan class="cls-6" x="395.01" y="186">k</tspan><tspan class="cls-4" x="493.74" y="186">e</tspan><tspan class="cls-1" x="590" y="186">y</tspan><tspan x="681.45" y="186">s</tspan></text></svg>